<?xml version="1.0" encoding="UTF-8"?>
<!DOCTYPE svg PUBLIC "-//W3C//DTD SVG 1.1//EN" "http://www.w3.org/Graphics/SVG/1.1/DTD/svg11.dtd">
<!-- Creator: CorelDRAW 2018 (64 Bit) -->
<?xml-stylesheet href="favicon.css" type="text/css"?>
<svg xmlns="http://www.w3.org/2000/svg" xml:space="preserve" width="12.0656mm" height="11.2612mm" version="1.1" style="shape-rendering:geometricPrecision; text-rendering:geometricPrecision; image-rendering:optimizeQuality; fill-rule:evenodd; clip-rule:evenodd"
viewBox="0 0 2.6362 2.4604"
 xmlns:xlink="http://www.w3.org/1999/xlink">
 <g id="Camada_x0020_1">
  <metadata id="CorelCorpID_0Corel-Layer"/>
  <path class="fil0" d="M0.8952 1.3181l0.335 0 0 -0.335c0,-0.1386 0.1758,-0.1386 0.1758,0l0 0.335 0.335 0c0.1386,0 0.1386,0.1758 0,0.1758l-0.335 0 0 0.335c0,0.1386 -0.1758,0.1386 -0.1758,0l0 -0.335 -0.335 0c-0.1386,0 -0.1386,-0.1758 0,-0.1758zm-0.1043 -1.038c0,-0.0691 0.0353,-0.1043 0.1043,-0.1043l0.8458 0c0.118,0 0.1043,0.0929 0.1043,0.1757l-1.0545 0 0 -0.0714zm-0.1758 -0.0385l0 0.1098 -0.2856 0c-0.1659,0 -0.3295,0.1637 -0.3295,0.3295l0 1.4499c0,0.1659 0.1637,0.3295 0.3295,0.3295l1.9771 0c0.1659,0 0.3295,-0.1637 0.3295,-0.3295l0 -1.4499c0,-0.1658 -0.1637,-0.3295 -0.3295,-0.3295l-0.2856 0c0,-0.1029 0.0107,-0.1902 -0.0753,-0.2762 -0.038,-0.038 -0.109,-0.0753 -0.1664,-0.0753l-0.9227 0c-0.032,0 -0.072,0.014 -0.0954,0.0255 -0.0806,0.0395 -0.1463,0.1306 -0.1463,0.2162z"/>
 </g>
</svg>
